# xmcd CD database file
#
# Track frame offsets:
#	150
#	14425
#	32537
#	46207
#	58372
#	71500
#	96697
#	108567
#	118885
#	132342
#	147975
#	158920
#	173975
#	191465
#	207500
#	218970
#	240045
#	256177
#	274460
#	286875
#	299117
#
# Disc length: 4149 seconds
#
# Revision: 0
# Processed by: cddbd v1.5.2PL0 Copyright (c) Steve Scherf et al.
# Submitted via: CDex 1.51
#
DISCID=54103315
DTITLE=Mirek Hoffmann - Crazy Pribehy
DYEAR=1996
DGENRE=Country
TTITLE0=U silnice E55
TTITLE1=Chajda bez vody
TTITLE2=Ted mam vokno
TTITLE3=Milenco kosove
TTITLE4=Tvare Lasky
TTITLE5=Rikal jsem ji Blackie
TTITLE6=Zlate hodinky
TTITLE7=Klasek a Sedmikraska
TTITLE8=Sle
TTITLE9=Pomnenka a Petrklic
TTITLE10=Rektajmova Kaca
TTITLE11=Mariana z Poruby
TTITLE12=Drakulova smrt
TTITLE13=Moje zena Alice
TTITLE14=Par cigaret a whisky
TTITLE15=Ohnovej nakladak
TTITLE16=Vdova kostlivcova
TTITLE17=Proklatej vuz
TTITLE18=Strycek adamita
TTITLE19=Trapas v Elm Street
TTITLE20=Jo, to byl den
EXTD=YEAR: 1996
EXTT0=
EXTT1=
EXTT2=
EXTT3=
EXTT4=
EXTT5=
EXTT6=
EXTT7=
EXTT8=
EXTT9=
EXTT10=
EXTT11=
EXTT12=
EXTT13=
EXTT14=
EXTT15=
EXTT16=
EXTT17=
EXTT18=
EXTT19=
EXTT20=
PLAYORDER=
